<svg xmlns="http://www.w3.org/2000/svg" xmlns:xlink="http://www.w3.org/1999/xlink" xmlns:lucid="lucid" width="1380" height="840"><g transform="translate(-60 -20)" lucid:page-tab-id="0_0"><path d="M80 260h320v60H80z" stroke="#000" stroke-width="2" fill="#fff"/><use xlink:href="#a" transform="matrix(1,0,0,1,85,265) translate(4.375 17.799999999999997)"/><use xlink:href="#b" transform="matrix(1,0,0,1,85,265) translate(52.325 17.799999999999997)"/><use xlink:href="#c" transform="matrix(1,0,0,1,85,265) translate(161.07500000000002 17.799999999999997)"/><use xlink:href="#d" transform="matrix(1,0,0,1,85,265) translate(210.675 17.799999999999997)"/><use xlink:href="#e" transform="matrix(1,0,0,1,85,265) translate(230.675 17.799999999999997)"/><use xlink:href="#f" transform="matrix(1,0,0,1,85,265) translate(285.625 17.799999999999997)"/><use xlink:href="#g" transform="matrix(1,0,0,1,85,265) translate(99.525 39.4)"/><use xlink:href="#h" transform="matrix(1,0,0,1,85,265) translate(152.47500000000002 39.4)"/><path d="M80 463.6h320v60H80z" stroke="#000" stroke-width="2" fill="#fff"/><use xlink:href="#i" transform="matrix(1,0,0,1,85,468.59999999999997) translate(11.199999999999989 18.299999999999997)"/><use xlink:href="#j" transform="matrix(1,0,0,1,85,468.59999999999997) translate(54.099999999999994 18.299999999999997)"/><use xlink:href="#k" transform="matrix(1,0,0,1,85,468.59999999999997) translate(122.05 18.299999999999997)"/><use xlink:href="#l" transform="matrix(1,0,0,1,85,468.59999999999997) translate(157.95 18.299999999999997)"/><use xlink:href="#d" transform="matrix(1,0,0,1,85,468.59999999999997) translate(197.95 18.299999999999997)"/><use xlink:href="#m" transform="matrix(1,0,0,1,85,468.59999999999997) translate(217.95 18.299999999999997)"/><use xlink:href="#n" transform="matrix(1,0,0,1,85,468.59999999999997) translate(15.150000000000006 39.9)"/><use xlink:href="#o" transform="matrix(1,0,0,1,85,468.59999999999997) translate(73.15 39.9)"/><use xlink:href="#p" transform="matrix(1,0,0,1,85,468.59999999999997) translate(121.10000000000001 39.9)"/><use xlink:href="#q" transform="matrix(1,0,0,1,85,468.59999999999997) translate(168.00000000000003 39.9)"/><use xlink:href="#r" transform="matrix(1,0,0,1,85,468.59999999999997) translate(188.95000000000002 39.9)"/><use xlink:href="#s" transform="matrix(1,0,0,1,85,468.59999999999997) translate(234.9 39.9)"/><path d="M336 120c35.35 0 64 21.58 64 48.2 0 26.62-28.65 48.2-64 48.2H144c-35.35 0-64-21.58-64-48.2 0-26.62 28.65-48.2 64-48.2z" stroke="#000" stroke-width="2" fill="#fff"/><use xlink:href="#i" transform="matrix(1,0,0,1,85,125) translate(11.675000000000011 36.3)"/><use xlink:href="#t" transform="matrix(1,0,0,1,85,125) translate(54.57500000000002 36.3)"/><use xlink:href="#u" transform="matrix(1,0,0,1,85,125) translate(108.57500000000002 36.3)"/><use xlink:href="#v" transform="matrix(1,0,0,1,85,125) translate(169.47500000000002 36.3)"/><use xlink:href="#d" transform="matrix(1,0,0,1,85,125) translate(216.425 36.3)"/><use xlink:href="#w" transform="matrix(1,0,0,1,85,125) translate(236.425 36.3)"/><use xlink:href="#x" transform="matrix(1,0,0,1,85,125) translate(49.57499999999999 57.9)"/><use xlink:href="#d" transform="matrix(1,0,0,1,85,125) translate(103.475 57.9)"/><use xlink:href="#y" transform="matrix(1,0,0,1,85,125) translate(123.475 57.9)"/><use xlink:href="#z" transform="matrix(1,0,0,1,85,125) translate(158.475 57.9)"/><use xlink:href="#A" transform="matrix(1,0,0,1,85,125) translate(196.425 57.9)"/><path d="M80 363.6h320V420H80z" stroke="#000" stroke-width="2" fill="#fff"/><use xlink:href="#B" transform="matrix(1,0,0,1,85,368.5999999999999) translate(3.1499999999999773 16.299999999999997)"/><use xlink:href="#C" transform="matrix(1,0,0,1,85,368.5999999999999) translate(35.14999999999998 16.299999999999997)"/><use xlink:href="#D" transform="matrix(1,0,0,1,85,368.5999999999999) translate(80.09999999999998 16.299999999999997)"/><use xlink:href="#E" transform="matrix(1,0,0,1,85,368.5999999999999) translate(104.04999999999998 16.299999999999997)"/><use xlink:href="#F" transform="matrix(1,0,0,1,85,368.5999999999999) translate(168 16.299999999999997)"/><use xlink:href="#G" transform="matrix(1,0,0,1,85,368.5999999999999) translate(253.85000000000002 16.299999999999997)"/><use xlink:href="#H" transform="matrix(1,0,0,1,85,368.5999999999999) translate(27.650000000000006 37.9)"/><use xlink:href="#I" transform="matrix(1,0,0,1,85,368.5999999999999) translate(62.650000000000006 37.9)"/><use xlink:href="#J" transform="matrix(1,0,0,1,85,368.5999999999999) translate(135.55 37.9)"/><use xlink:href="#d" transform="matrix(1,0,0,1,85,368.5999999999999) translate(227.4 37.9)"/><use xlink:href="#K" transform="matrix(1,0,0,1,85,368.5999999999999) translate(247.4 37.9)"/><path d="M640 216.4l80 46.9-80 46.88-80-46.9z" stroke="#000" stroke-width="2" fill="#fff"/><use xlink:href="#L" transform="matrix(1,0,0,1,565,221.40000000000003) translate(32.525 34.8)"/><use xlink:href="#M" transform="matrix(1,0,0,1,565,221.40000000000003) translate(77.525 34.8)"/><use xlink:href="#N" transform="matrix(1,0,0,1,565,221.40000000000003) translate(32 56.4)"/><path d="M480 120h320v60H480z" stroke="#000" stroke-width="2" fill="#fff"/><use xlink:href="#B" transform="matrix(1,0,0,1,485,125) translate(3.2249999999999943 28.6)"/><use xlink:href="#O" transform="matrix(1,0,0,1,485,125) translate(35.224999999999994 28.6)"/><use xlink:href="#d" transform="matrix(1,0,0,1,485,125) translate(74.125 28.6)"/><use xlink:href="#P" transform="matrix(1,0,0,1,485,125) translate(94.125 28.6)"/><use xlink:href="#k" transform="matrix(1,0,0,1,485,125) translate(139.125 28.6)"/><use xlink:href="#Q" transform="matrix(1,0,0,1,485,125) translate(175.025 28.6)"/><use xlink:href="#R" transform="matrix(1,0,0,1,485,125) translate(219.975 28.6)"/><use xlink:href="#S" transform="matrix(1,0,0,1,485,125) translate(256.875 28.6)"/><path d="M480 380h320v56.4H480z" stroke="#000" stroke-width="2" fill="#fff"/><use xlink:href="#B" transform="matrix(1,0,0,1,485,385) translate(18.05000000000001 16.299999999999997)"/><use xlink:href="#T" transform="matrix(1,0,0,1,485,385) translate(50.05000000000001 16.299999999999997)"/><use xlink:href="#U" transform="matrix(1,0,0,1,485,385) translate(118.00000000000001 16.299999999999997)"/><use xlink:href="#V" transform="matrix(1,0,0,1,485,385) translate(182 16.299999999999997)"/><use xlink:href="#W" transform="matrix(1,0,0,1,485,385) translate(261.95 16.299999999999997)"/><use xlink:href="#X" transform="matrix(1,0,0,1,485,385) translate(33.625 37.9)"/><use xlink:href="#Y" transform="matrix(1,0,0,1,485,385) translate(75.625 37.9)"/><use xlink:href="#d" transform="matrix(1,0,0,1,485,385) translate(115.575 37.9)"/><use xlink:href="#Z" transform="matrix(1,0,0,1,485,385) translate(135.575 37.9)"/><use xlink:href="#aa" transform="matrix(1,0,0,1,485,385) translate(183.475 37.9)"/><path d="M480 632.4h320v58.4H480z" stroke="#000" stroke-width="2" fill="#fff"/><use xlink:href="#B" transform="matrix(1,0,0,1,485,637.3999999999999) translate(36.57499999999999 17.299999999999997)"/><use xlink:href="#ab" transform="matrix(1,0,0,1,485,637.3999999999999) translate(68.57499999999999 17.299999999999997)"/><use xlink:href="#ac" transform="matrix(1,0,0,1,485,637.3999999999999) translate(108.52499999999999 17.299999999999997)"/><use xlink:href="#ad" transform="matrix(1,0,0,1,485,637.3999999999999) translate(198.475 17.299999999999997)"/><use xlink:href="#ae" transform="matrix(1,0,0,1,485,637.3999999999999) translate(8.224999999999966 38.9)"/><use xlink:href="#af" transform="matrix(1,0,0,1,485,637.3999999999999) translate(104.07499999999997 38.9)"/><use xlink:href="#ag" transform="matrix(1,0,0,1,485,637.3999999999999) translate(165.075 38.9)"/><use xlink:href="#ah" transform="matrix(1,0,0,1,485,637.3999999999999) translate(206.02499999999998 38.9)"/><use xlink:href="#ai" transform="matrix(1,0,0,1,485,637.3999999999999) translate(271.925 38.9)"/><path d="M240 217.4v23.36M240 217.4v-3" stroke="#000" stroke-width="2" fill="none"/><path d="M240 255.76l-4.64-14.26h9.28z" stroke="#000" stroke-width="2"/><path d="M240 321v23.36M240 321v-3" stroke="#000" stroke-width="2" fill="none"/><path d="M240 359.36l-4.64-14.26h9.28z" stroke="#000" stroke-width="2"/><path d="M240 421v23.36M240 421v-3" stroke="#000" stroke-width="2" fill="none"/><path d="M240 459.36l-4.64-14.26h9.28z" stroke="#000" stroke-width="2"/><path d="M120 40h240v60H120z" stroke="#000" stroke-opacity="0" stroke-width="2" fill="#fff" fill-opacity="0"/><use xlink:href="#aj" transform="matrix(1,0,0,1,125,45) translate(34.33333333333333 30.333333333333336)"/><use xlink:href="#ak" transform="matrix(1,0,0,1,125,45) translate(126.03703703703704 30.333333333333336)"/><path d="M520 40h240v60H520z" stroke="#000" stroke-opacity="0" stroke-width="2" fill="#fff" fill-opacity="0"/><use xlink:href="#al" transform="matrix(1,0,0,1,525,45) translate(19.074074074074076 30.333333333333336)"/><use xlink:href="#ak" transform="matrix(1,0,0,1,525,45) translate(141.2962962962963 30.333333333333336)"/><path d="M640 181v16M640 181v-3" stroke="#000" stroke-width="2" fill="none"/><path d="M640 212l-4.64-14.26h9.28z" stroke="#000" stroke-width="2"/><path d="M80 560h320v60H80z" stroke="#000" stroke-width="2" fill="#fff"/><use xlink:href="#i" transform="matrix(1,0,0,1,85,565) translate(27.174999999999997 18.299999999999997)"/><use xlink:href="#am" transform="matrix(1,0,0,1,85,565) translate(70.075 18.299999999999997)"/><use xlink:href="#an" transform="matrix(1,0,0,1,85,565) translate(131.97500000000002 18.299999999999997)"/><use xlink:href="#ao" transform="matrix(1,0,0,1,85,565) translate(163.97500000000002 18.299999999999997)"/><use xlink:href="#u" transform="matrix(1,0,0,1,85,565) translate(191.925 18.299999999999997)"/><use xlink:href="#ap" transform="matrix(1,0,0,1,85,565) translate(252.825 18.299999999999997)"/><use xlink:href="#aq" transform="matrix(1,0,0,1,85,565) translate(80.1 39.9)"/><use xlink:href="#ar" transform="matrix(1,0,0,1,85,565) translate(139.05 39.9)"/><use xlink:href="#as" transform="matrix(1,0,0,1,85,565) translate(157 39.9)"/><path d="M240 524.6v16.16M240 524.6v-3" stroke="#000" stroke-width="2" fill="none"/><path d="M240 555.76l-4.64-14.26h9.28z" stroke="#000" stroke-width="2"/><path d="M460.76 151H441v440h-40v-2h38V149h21.76zM401 591h-3v-2h3zM475.76 150l-14.26 4.64v-9.28z"/><path d="M479 150l-18.5 6v-12zm-16.5 3.26l10.03-3.26-10.03-3.26zM500.52 264.3H461v213.37h-41.76v-2H459V262.3h41.52zm57.5 0h-34.54v-2H558zM561.02 264.3h-3v-2h3zM418.5 481.3l-14.26-4.63 14.26-4.64z"/><path d="M419.5 482.68l-18.5-6 18.5-6.03zm-12.03-6l10.03 3.25v-6.52z"/><use xlink:href="#at" transform="matrix(1,0,0,1,500.525,252.49166666666667) translate(0 14.4)"/><path d="M641 360.76h-2v-4.8h2zm0-26.4h-2v-23.02h2zM641 311.34h-2v-3h2zM640 375.76l-4.64-14.26h9.28z"/><path d="M640 379l-6-18.5h12zm-3.26-16.5l3.26 10.03 3.26-10.03z"/><use xlink:href="#au" transform="matrix(1,0,0,1,625.325,334.37122800000003) translate(0 14.4)"/><path d="M640 480l80 46.9-80 46.88-80-46.9z" stroke="#000" stroke-width="2" fill="#fff"/><g><use xlink:href="#av" transform="matrix(1,0,0,1,565,485) translate(13.049999999999997 45.6)"/><use xlink:href="#aw" transform="matrix(1,0,0,1,565,485) translate(53 45.6)"/></g><path d="M640 437.4v23.2M640 437.4v-3" stroke="#000" stroke-width="2" fill="none"/><path d="M640 475.6l-4.64-14.26h9.28z" stroke="#000" stroke-width="2"/><path d="M641 592.37h-2v-17.43h2zM641 574.94h-2v-3h2zM640 628.16l-4.6-14.2h9.2z"/><path d="M640 631.4l-5.66-17.43h11.32zm-3.26-16.5l3.26 10.03 3.26-10.03z"/><g><use xlink:href="#au" transform="matrix(1,0,0,1,625.325,592.371228) translate(0 14.4)"/></g><path d="M480.5 525.9h32.02v2h-34v-33.3h-59.28v-2h61.27zm77.52 0v2h-22.54v-2zM561.02 527.9h-3v-2h3zM418.5 498.24l-14.26-4.64 14.26-4.64z"/><path d="M419.5 499.6l-18.5-6 18.5-6zm-12.03-6l10.03 3.26v-6.52z"/><g><use xlink:href="#at" transform="matrix(1,0,0,1,512.525,516.0916666666667) translate(0 14.4)"/></g><path d="M640 740l80 46.9-80 46.88-80-46.9z" stroke="#000" stroke-width="2" fill="#fff"/><g><use xlink:href="#ax" transform="matrix(1,0,0,1,565,745) translate(30 45.6)"/><use xlink:href="#ay" transform="matrix(1,0,0,1,565,745) translate(91 45.6)"/></g><path d="M640 691.8v28.8M640 691.8v-3" stroke="#000" stroke-width="2" fill="none"/><path d="M640 735.6l-4.64-14.26h9.28z" stroke="#000" stroke-width="2"/><path d="M880 120h320v60H880z" stroke="#000" stroke-width="2" fill="#fff"/><g><use xlink:href="#B" transform="matrix(1,0,0,1,885,125) translate(1.6999999999999886 17.799999999999997)"/><use xlink:href="#az" transform="matrix(1,0,0,1,885,125) translate(33.69999999999999 17.799999999999997)"/><use xlink:href="#k" transform="matrix(1,0,0,1,885,125) translate(90.64999999999999 17.799999999999997)"/><use xlink:href="#l" transform="matrix(1,0,0,1,885,125) translate(126.54999999999998 17.799999999999997)"/><use xlink:href="#aA" transform="matrix(1,0,0,1,885,125) translate(166.54999999999998 17.799999999999997)"/><use xlink:href="#F" transform="matrix(1,0,0,1,885,125) translate(207.45 17.799999999999997)"/><use xlink:href="#aB" transform="matrix(1,0,0,1,885,125) translate(293.3 17.799999999999997)"/><use xlink:href="#aC" transform="matrix(1,0,0,1,885,125) translate(78.075 39.4)"/><use xlink:href="#h" transform="matrix(1,0,0,1,885,125) translate(173.925 39.4)"/></g><path d="M831 787.9H721.98v-2H829V508.75h2zM860.76 151H831v336.16h-2V149h31.76zM721.98 787.9h-3v-2h3zM875.76 150l-14.26 4.64v-9.28z"/><path d="M879 150l-18.5 6v-12zm-16.5 3.26l10.03-3.26-10.03-3.26z"/><g><use xlink:href="#au" transform="matrix(1,0,0,1,815.325,487.15706661767666) translate(0 14.4)"/></g><path d="M461 785.9h40.86v2H459V515h-39.76v-2H461zm97.02 0v2h-33.2v-2zM561.02 787.9h-3v-2h3zM418.5 518.64L404.24 514l14.26-4.64z"/><path d="M419.5 520l-18.5-6 18.5-6zm-12.03-6l10.03 3.26v-6.52z"/><g><use xlink:href="#at" transform="matrix(1,0,0,1,501.85833333333335,776.0916666666667) translate(0 14.4)"/></g><path d="M880 220h320v60H880z" stroke="#000" stroke-width="2" fill="#fff"/><g><use xlink:href="#B" transform="matrix(1,0,0,1,885,225) translate(18.05000000000001 17.799999999999997)"/><use xlink:href="#T" transform="matrix(1,0,0,1,885,225) translate(50.05000000000001 17.799999999999997)"/><use xlink:href="#U" transform="matrix(1,0,0,1,885,225) translate(118.00000000000001 17.799999999999997)"/><use xlink:href="#V" transform="matrix(1,0,0,1,885,225) translate(182 17.799999999999997)"/><use xlink:href="#W" transform="matrix(1,0,0,1,885,225) translate(261.95 17.799999999999997)"/><use xlink:href="#E" transform="matrix(1,0,0,1,885,225) translate(11.625 39.4)"/><use xlink:href="#aD" transform="matrix(1,0,0,1,885,225) translate(75.575 39.4)"/><use xlink:href="#aE" transform="matrix(1,0,0,1,885,225) translate(127.125 39.4)"/><use xlink:href="#aF" transform="matrix(1,0,0,1,885,225) translate(166.025 39.4)"/><use xlink:href="#aG" transform="matrix(1,0,0,1,885,225) translate(181.525 39.4)"/><use xlink:href="#aH" transform="matrix(1,0,0,1,885,225) translate(244.47500000000002 39.4)"/></g><path d="M1040 181v19.76M1040 181v-3" stroke="#000" stroke-width="2" fill="none"/><path d="M1040 215.76l-4.64-14.26h9.28z" stroke="#000" stroke-width="2"/><path d="M880 320h320v60H880z" stroke="#000" stroke-width="2" fill="#fff"/><g><use xlink:href="#B" transform="matrix(1,0,0,1,885,325) translate(12.299999999999983 17.799999999999997)"/><use xlink:href="#t" transform="matrix(1,0,0,1,885,325) translate(44.29999999999998 17.799999999999997)"/><use xlink:href="#aI" transform="matrix(1,0,0,1,885,325) translate(98.29999999999998 17.799999999999997)"/><use xlink:href="#aJ" transform="matrix(1,0,0,1,885,325) translate(131.2 17.799999999999997)"/><use xlink:href="#d" transform="matrix(1,0,0,1,885,325) translate(196.15 17.799999999999997)"/><use xlink:href="#y" transform="matrix(1,0,0,1,885,325) translate(216.15 17.799999999999997)"/><use xlink:href="#aK" transform="matrix(1,0,0,1,885,325) translate(251.15 17.799999999999997)"/><use xlink:href="#aL" transform="matrix(1,0,0,1,885,325) translate(56.625 39.4)"/><use xlink:href="#d" transform="matrix(1,0,0,1,885,325) translate(115.525 39.4)"/><use xlink:href="#aM" transform="matrix(1,0,0,1,885,325) translate(135.525 39.4)"/><use xlink:href="#aN" transform="matrix(1,0,0,1,885,325) translate(195.425 39.4)"/></g><path d="M1040 281v19.76M1040 281v-3" stroke="#000" stroke-width="2" fill="none"/><path d="M1040 315.76l-4.64-14.26h9.28z" stroke="#000" stroke-width="2"/><path d="M880 420h320v60H880z" stroke="#000" stroke-width="2" fill="#fff"/><g><use xlink:href="#aO" transform="matrix(1,0,0,1,885,425) translate(9.625 17.799999999999997)"/><use xlink:href="#aP" transform="matrix(1,0,0,1,885,425) translate(65.525 17.799999999999997)"/><use xlink:href="#aQ" transform="matrix(1,0,0,1,885,425) translate(123.47500000000001 17.799999999999997)"/><use xlink:href="#aR" transform="matrix(1,0,0,1,885,425) translate(157.47500000000002 17.799999999999997)"/><use xlink:href="#aS" transform="matrix(1,0,0,1,885,425) translate(244.425 17.799999999999997)"/><use xlink:href="#aT" transform="matrix(1,0,0,1,885,425) translate(86.57499999999999 39.4)"/><use xlink:href="#aU" transform="matrix(1,0,0,1,885,425) translate(110.57499999999999 39.4)"/><use xlink:href="#aV" transform="matrix(1,0,0,1,885,425) translate(168.475 39.4)"/><use xlink:href="#aW" transform="matrix(1,0,0,1,885,425) translate(198.475 39.4)"/></g><path d="M1040 523.6l80 46.9-80 46.88-80-46.9z" stroke="#000" stroke-width="2" fill="#fff"/><g><use xlink:href="#aX" transform="matrix(1,0,0,1,965,528.6) translate(62.525 34.8)"/><use xlink:href="#aY" transform="matrix(1,0,0,1,965,528.6) translate(42.05 56.4)"/></g><path d="M1040 381v19.76M1040 381v-3" stroke="#000" stroke-width="2" fill="none"/><path d="M1040 415.76l-4.64-14.26h9.28z" stroke="#000" stroke-width="2"/><path d="M1040 481v23.2M1040 481v-3" stroke="#000" stroke-width="2" fill="none"/><path d="M1040 519.2l-4.64-14.26h9.28z" stroke="#000" stroke-width="2"/><path d="M920 40h240v60H920z" stroke="#000" stroke-opacity="0" stroke-width="2" fill="#fff" fill-opacity="0"/><g><use xlink:href="#aZ" transform="matrix(1,0,0,1,925,45) translate(22.444444444444443 30.333333333333336)"/><use xlink:href="#ak" transform="matrix(1,0,0,1,925,45) translate(137.92592592592592 30.333333333333336)"/></g><path d="M880 680h320v60H880z" stroke="#000" stroke-width="2" fill="#fff"/><g><use xlink:href="#ba" transform="matrix(1,0,0,1,885,685) translate(58.099999999999994 28.6)"/><use xlink:href="#l" transform="matrix(1,0,0,1,885,685) translate(99 28.6)"/><use xlink:href="#bb" transform="matrix(1,0,0,1,885,685) translate(139 28.6)"/><use xlink:href="#aN" transform="matrix(1,0,0,1,885,685) translate(193.95000000000002 28.6)"/></g><path d="M1040 741v19.76M1040 741v-3" stroke="#000" stroke-width="2" fill="none"/><path d="M1040 775.76l-4.64-14.26h9.28z" stroke="#000" stroke-width="2"/><path d="M1041 660.76h-2v-1.2h2zm0-22.8h-2v-19.42h2zM1041 618.54h-2v-3h2zM1040 675.76l-4.64-14.26h9.28z"/><path d="M1040 679l-6-18.5h12zm-3.26-16.5l3.26 10.03 3.26-10.03z"/><g><use xlink:href="#bc" transform="matrix(1,0,0,1,1014.55,637.9712280000001) translate(0 14.4)"/></g><path d="M1149.5 571.5H1122v-2h27.53zm51.26 0h-9.3v-2h9.3zM1121.98 571.5h-3v-2h3zM1215.76 570.5l-14.26 4.63v-9.27z"/><path d="M1219 570.5l-18.5 6v-12.02zm-16.5 3.25l10.03-3.26-10.03-3.27z"/><g><use xlink:href="#bd" transform="matrix(1,0,0,1,1149.5134547641087,559.6916666666667) translate(0 14.4)"/></g><path d="M1136 780c35.35 0 64 13.43 64 30s-28.65 30-64 30H944c-35.35 0-64-13.43-64-30s28.65-30 64-30z" stroke="#000" stroke-width="2" fill="#fff"/><g><use xlink:href="#B" transform="matrix(1,0,0,1,885,785) translate(58.650000000000006 28.6)"/><use xlink:href="#be" transform="matrix(1,0,0,1,885,785) translate(90.65 28.6)"/><use xlink:href="#bf" transform="matrix(1,0,0,1,885,785) translate(146.60000000000002 28.6)"/><use xlink:href="#bg" transform="matrix(1,0,0,1,885,785) translate(209.4 28.6)"/></g><path d="M1380 530.5c22.1 0 40 17.9 40 40 0 22.08-17.9 40-40 40h-120c-22.1 0-40-17.92-40-40 0-22.1 17.9-40 40-40z" stroke="#000" stroke-width="2" fill="#fff"/><g><use xlink:href="#B" transform="matrix(1,0,0,1,1225,535.4916666666977) translate(9.575000000000003 27.799999999999997)"/><use xlink:href="#bh" transform="matrix(1,0,0,1,1225,535.4916666666977) translate(41.575 27.799999999999997)"/><use xlink:href="#l" transform="matrix(1,0,0,1,1225,535.4916666666977) translate(104.525 27.799999999999997)"/><use xlink:href="#bi" transform="matrix(1,0,0,1,1225,535.4916666666977) translate(144.52499999999998 27.799999999999997)"/><use xlink:href="#bj" transform="matrix(1,0,0,1,1225,535.4916666666977) translate(23.049999999999997 49.4)"/><use xlink:href="#bk" transform="matrix(1,0,0,1,1225,535.4916666666977) translate(113.95 49.4)"/></g><defs><path d="M185-189c-5-48-123-54-124 2 14 75 158 14 163 119 3 78-121 87-175 55-17-10-28-26-33-46l33-7c5 56 141 63 141-1 0-78-155-14-162-118-5-82 145-84 179-34 5 7 8 16 11 25" id="bl"/><path d="M59-47c-2 24 18 29 38 22v24C64 9 27 4 27-40v-127H5v-23h24l9-43h21v43h35v23H59v120" id="bm"/><path d="M100-194c62-1 85 37 85 99 1 63-27 99-86 99S16-35 15-95c0-66 28-99 85-99zM99-20c44 1 53-31 53-75 0-43-8-75-51-75s-53 32-53 75 10 74 51 75" id="bn"/><path d="M114-163C36-179 61-72 57 0H25l-1-190h30c1 12-1 29 2 39 6-27 23-49 58-41v29" id="bo"/><path d="M100-194c63 0 86 42 84 106H49c0 40 14 67 53 68 26 1 43-12 49-29l28 8c-11 28-37 45-77 45C44 4 14-33 15-96c1-61 26-98 85-98zm52 81c6-60-76-77-97-28-3 7-6 17-6 28h103" id="bp"/><g id="a"><use transform="matrix(0.05,0,0,0.05,0,0)" xlink:href="#bl"/><use transform="matrix(0.05,0,0,0.05,12,0)" xlink:href="#bm"/><use transform="matrix(0.05,0,0,0.05,17,0)" xlink:href="#bn"/><use transform="matrix(0.05,0,0,0.05,27,0)" xlink:href="#bo"/><use transform="matrix(0.05,0,0,0.05,32.95,0)" xlink:href="#bp"/></g><path d="M141-36C126-15 110 5 73 4 37 3 15-17 15-53c-1-64 63-63 125-63 3-35-9-54-41-54-24 1-41 7-42 31l-33-3c5-37 33-52 76-52 45 0 72 20 72 64v82c-1 20 7 32 28 27v20c-31 9-61-2-59-35zM48-53c0 20 12 33 32 33 41-3 63-29 60-74-43 2-92-5-92 41" id="bq"/><path d="M85-194c31 0 48 13 60 33l-1-100h32l1 261h-30c-2-10 0-23-3-31C134-8 116 4 85 4 32 4 16-35 15-94c0-66 23-100 70-100zm9 24c-40 0-46 34-46 75 0 40 6 74 45 74 42 0 51-32 51-76 0-42-9-74-50-73" id="br"/><path d="M210-169c-67 3-38 105-44 169h-31v-121c0-29-5-50-35-48C34-165 62-65 56 0H25l-1-190h30c1 10-1 24 2 32 10-44 99-50 107 0 11-21 27-35 58-36 85-2 47 119 55 194h-31v-121c0-29-5-49-35-48" id="bs"/><path d="M24-231v-30h32v30H24zM24 0v-190h32V0H24" id="bt"/><path d="M117-194c89-4 53 116 60 194h-32v-121c0-31-8-49-39-48C34-167 62-67 57 0H25l-1-190h30c1 10-1 24 2 32 11-22 29-35 61-36" id="bu"/><path d="M135-143c-3-34-86-38-87 0 15 53 115 12 119 90S17 21 10-45l28-5c4 36 97 45 98 0-10-56-113-15-118-90-4-57 82-63 122-42 12 7 21 19 24 35" id="bv"/><g id="b"><use transform="matrix(0.05,0,0,0.05,0,0)" xlink:href="#bq"/><use transform="matrix(0.05,0,0,0.05,10,0)" xlink:href="#br"/><use transform="matrix(0.05,0,0,0.05,20,0)" xlink:href="#bs"/><use transform="matrix(0.05,0,0,0.05,34.95,0)" xlink:href="#bt"/><use transform="matrix(0.05,0,0,0.05,38.900000000000006,0)" xlink:href="#bu"/><use transform="matrix(0.05,0,0,0.05,48.900000000000006,0)" xlink:href="#bt"/><use transform="matrix(0.05,0,0,0.05,52.85,0)" xlink:href="#bv"/><use transform="matrix(0.05,0,0,0.05,61.85,0)" xlink:href="#bm"/><use transform="matrix(0.05,0,0,0.05,66.85000000000001,0)" xlink:href="#bo"/><use transform="matrix(0.05,0,0,0.05,72.80000000000001,0)" xlink:href="#bq"/><use transform="matrix(0.05,0,0,0.05,82.80000000000001,0)" xlink:href="#bm"/><use transform="matrix(0.05,0,0,0.05,87.80000000000001,0)" xlink:href="#bn"/><use transform="matrix(0.05,0,0,0.05,97.80000000000001,0)" xlink:href="#bo"/></g><path d="M101-234c-31-9-42 10-38 44h38v23H63V0H32v-167H5v-23h27c-7-52 17-82 69-68v24" id="bw"/><g id="c"><use transform="matrix(0.05,0,0,0.05,0,0)" xlink:href="#bn"/><use transform="matrix(0.05,0,0,0.05,10,0)" xlink:href="#bw"/><use transform="matrix(0.05,0,0,0.05,14.65,0)" xlink:href="#bw"/><use transform="matrix(0.05,0,0,0.05,19.65,0)" xlink:href="#bp"/><use transform="matrix(0.05,0,0,0.05,29.649999999999995,0)" xlink:href="#bo"/><use transform="matrix(0.05,0,0,0.05,35.6,0)" xlink:href="#bv"/></g><g id="d"><use transform="matrix(0.05,0,0,0.05,0,0)" xlink:href="#bm"/><use transform="matrix(0.05,0,0,0.05,5,0)" xlink:href="#bn"/></g><path d="M96-169c-40 0-48 33-48 73s9 75 48 75c24 0 41-14 43-38l32 2c-6 37-31 61-74 61-59 0-76-41-82-99-10-93 101-131 147-64 4 7 5 14 7 22l-32 3c-4-21-16-35-41-35" id="bx"/><g id="e"><use transform="matrix(0.05,0,0,0.05,0,0)" xlink:href="#bx"/><use transform="matrix(0.05,0,0,0.05,9,0)" xlink:href="#bo"/><use transform="matrix(0.05,0,0,0.05,14.949999999999998,0)" xlink:href="#bp"/><use transform="matrix(0.05,0,0,0.05,24.95,0)" xlink:href="#bq"/><use transform="matrix(0.05,0,0,0.05,34.95,0)" xlink:href="#bm"/><use transform="matrix(0.05,0,0,0.05,39.95,0)" xlink:href="#bp"/></g><g id="f"><use transform="matrix(0.05,0,0,0.05,0,0)" xlink:href="#bq"/><use transform="matrix(0.05,0,0,0.05,10,0)" xlink:href="#bu"/></g><path d="M177-190C167-65 218 103 67 71c-23-6-38-20-44-43l32-5c15 47 100 32 89-28v-30C133-14 115 1 83 1 29 1 15-40 15-95c0-56 16-97 71-98 29-1 48 16 59 35 1-10 0-23 2-32h30zM94-22c36 0 50-32 50-73 0-42-14-75-50-75-39 0-46 34-46 75s6 73 46 73" id="by"/><g id="g"><use transform="matrix(0.05,0,0,0.05,0,0)" xlink:href="#bt"/><use transform="matrix(0.05,0,0,0.05,3.95,0)" xlink:href="#bu"/><use transform="matrix(0.05,0,0,0.05,13.949999999999998,0)" xlink:href="#by"/><use transform="matrix(0.05,0,0,0.05,23.95,0)" xlink:href="#bp"/><use transform="matrix(0.05,0,0,0.05,33.95,0)" xlink:href="#bv"/><use transform="matrix(0.05,0,0,0.05,42.95,0)" xlink:href="#bm"/></g><path d="M115-194c53 0 69 39 70 98 0 66-23 100-70 100C84 3 66-7 56-30L54 0H23l1-261h32v101c10-23 28-34 59-34zm-8 174c40 0 45-34 45-75 0-40-5-75-45-74-42 0-51 32-51 76 0 43 10 73 51 73" id="bz"/><path d="M84 4C-5 8 30-112 23-190h32v120c0 31 7 50 39 49 72-2 45-101 50-169h31l1 190h-30c-1-10 1-25-2-33-11 22-28 36-60 37" id="bA"/><path d="M143 0L79-87 56-68V0H24v-261h32v163l83-92h37l-77 82L181 0h-38" id="bB"/><path d="M33 0v-38h34V0H33" id="bC"/><g id="h"><use transform="matrix(0.05,0,0,0.05,0,0)" xlink:href="#bz"/><use transform="matrix(0.05,0,0,0.05,10,0)" xlink:href="#bA"/><use transform="matrix(0.05,0,0,0.05,20,0)" xlink:href="#bx"/><use transform="matrix(0.05,0,0,0.05,29,0)" xlink:href="#bB"/><use transform="matrix(0.05,0,0,0.05,38,0)" xlink:href="#bp"/><use transform="matrix(0.05,0,0,0.05,48,0)" xlink:href="#bm"/><use transform="matrix(0.05,0,0,0.05,53,0)" xlink:href="#bC"/></g><path d="M232-93c-1 65-40 97-104 97C67 4 28-28 28-90v-158h33c8 89-33 224 67 224 102 0 64-133 71-224h33v155" id="bD"/><g id="i"><use transform="matrix(0.05,0,0,0.05,0,0)" xlink:href="#bD"/><use transform="matrix(0.05,0,0,0.05,12.950000000000001,0)" xlink:href="#bv"/><use transform="matrix(0.05,0,0,0.05,21.950000000000003,0)" xlink:href="#bp"/><use transform="matrix(0.05,0,0,0.05,31.950000000000003,0)" xlink:href="#bo"/></g><path d="M115-194c55 1 70 41 70 98S169 2 115 4C84 4 66-9 55-30l1 105H24l-1-265h31l2 30c10-21 28-34 59-34zm-8 174c40 0 45-34 45-75s-6-73-45-74c-42 0-51 32-51 76 0 43 10 73 51 73" id="bE"/><path d="M24 0v-261h32V0H24" id="bF"/><g id="j"><use transform="matrix(0.05,0,0,0.05,0,0)" xlink:href="#bA"/><use transform="matrix(0.05,0,0,0.05,10,0)" xlink:href="#bE"/><use transform="matrix(0.05,0,0,0.05,20,0)" xlink:href="#bF"/><use transform="matrix(0.05,0,0,0.05,23.95,0)" xlink:href="#bn"/><use transform="matrix(0.05,0,0,0.05,33.95,0)" xlink:href="#bq"/><use transform="matrix(0.05,0,0,0.05,43.95,0)" xlink:href="#br"/><use transform="matrix(0.05,0,0,0.05,53.95,0)" xlink:href="#bv"/></g><path d="M9 0v-24l116-142H16v-24h144v24L44-24h123V0H9" id="bG"/><g id="k"><use transform="matrix(0.05,0,0,0.05,0,0)" xlink:href="#bG"/><use transform="matrix(0.05,0,0,0.05,9,0)" xlink:href="#bq"/><use transform="matrix(0.05,0,0,0.05,19,0)" xlink:href="#bo"/><use transform="matrix(0.05,0,0,0.05,24.95,0)" xlink:href="#bo"/></g><g id="l"><use transform="matrix(0.05,0,0,0.05,0,0)" xlink:href="#br"/><use transform="matrix(0.05,0,0,0.05,10,0)" xlink:href="#bq"/><use transform="matrix(0.05,0,0,0.05,20,0)" xlink:href="#bm"/><use transform="matrix(0.05,0,0,0.05,25,0)" xlink:href="#bq"/></g><path d="M179-190L93 31C79 59 56 82 12 73V49c39 6 53-20 64-50L1-190h34L92-34l54-156h33" id="bH"/><g id="m"><use transform="matrix(0.05,0,0,0.05,0,0)" xlink:href="#bm"/><use transform="matrix(0.05,0,0,0.05,5,0)" xlink:href="#bp"/><use transform="matrix(0.05,0,0,0.05,15,0)" xlink:href="#bs"/><use transform="matrix(0.05,0,0,0.05,29.950000000000003,0)" xlink:href="#bE"/><use transform="matrix(0.05,0,0,0.05,39.95,0)" xlink:href="#bn"/><use transform="matrix(0.05,0,0,0.05,49.95,0)" xlink:href="#bo"/><use transform="matrix(0.05,0,0,0.05,55.900000000000006,0)" xlink:href="#bq"/><use transform="matrix(0.05,0,0,0.05,65.9,0)" xlink:href="#bo"/><use transform="matrix(0.05,0,0,0.05,71.85000000000001,0)" xlink:href="#bH"/></g><g id="n"><use transform="matrix(0.05,0,0,0.05,0,0)" xlink:href="#bz"/><use transform="matrix(0.05,0,0,0.05,10,0)" xlink:href="#bA"/><use transform="matrix(0.05,0,0,0.05,20,0)" xlink:href="#bx"/><use transform="matrix(0.05,0,0,0.05,29,0)" xlink:href="#bB"/><use transform="matrix(0.05,0,0,0.05,38,0)" xlink:href="#bp"/><use transform="matrix(0.05,0,0,0.05,48,0)" xlink:href="#bm"/></g><g id="o"><use transform="matrix(0.05,0,0,0.05,0,0)" xlink:href="#bA"/><use transform="matrix(0.05,0,0,0.05,10,0)" xlink:href="#bv"/><use transform="matrix(0.05,0,0,0.05,19,0)" xlink:href="#bt"/><use transform="matrix(0.05,0,0,0.05,22.95,0)" xlink:href="#bu"/><use transform="matrix(0.05,0,0,0.05,32.95,0)" xlink:href="#by"/></g><g id="p"><use transform="matrix(0.05,0,0,0.05,0,0)" xlink:href="#by"/><use transform="matrix(0.05,0,0,0.05,10,0)" xlink:href="#bv"/><use transform="matrix(0.05,0,0,0.05,19,0)" xlink:href="#bA"/><use transform="matrix(0.05,0,0,0.05,29,0)" xlink:href="#bm"/><use transform="matrix(0.05,0,0,0.05,34,0)" xlink:href="#bt"/><use transform="matrix(0.05,0,0,0.05,37.95,0)" xlink:href="#bF"/></g><g id="q"><use transform="matrix(0.05,0,0,0.05,0,0)" xlink:href="#bn"/><use transform="matrix(0.05,0,0,0.05,10,0)" xlink:href="#bo"/></g><path d="M106-169C34-169 62-67 57 0H25v-261h32l-1 103c12-21 28-36 61-36 89 0 53 116 60 194h-32v-121c2-32-8-49-39-48" id="bI"/><g id="r"><use transform="matrix(0.05,0,0,0.05,0,0)" xlink:href="#bn"/><use transform="matrix(0.05,0,0,0.05,10,0)" xlink:href="#bm"/><use transform="matrix(0.05,0,0,0.05,15,0)" xlink:href="#bI"/><use transform="matrix(0.05,0,0,0.05,25,0)" xlink:href="#bp"/><use transform="matrix(0.05,0,0,0.05,35,0)" xlink:href="#bo"/></g><g id="s"><use transform="matrix(0.05,0,0,0.05,0,0)" xlink:href="#bs"/><use transform="matrix(0.05,0,0,0.05,14.950000000000001,0)" xlink:href="#bp"/><use transform="matrix(0.05,0,0,0.05,24.950000000000003,0)" xlink:href="#bm"/><use transform="matrix(0.05,0,0,0.05,29.950000000000003,0)" xlink:href="#bI"/><use transform="matrix(0.05,0,0,0.05,39.95,0)" xlink:href="#bn"/><use transform="matrix(0.05,0,0,0.05,49.95,0)" xlink:href="#br"/></g><g id="t"><use transform="matrix(0.05,0,0,0.05,0,0)" xlink:href="#bn"/><use transform="matrix(0.05,0,0,0.05,10,0)" xlink:href="#bE"/><use transform="matrix(0.05,0,0,0.05,20,0)" xlink:href="#bp"/><use transform="matrix(0.05,0,0,0.05,30,0)" xlink:href="#bu"/><use transform="matrix(0.05,0,0,0.05,40,0)" xlink:href="#bv"/></g><path d="M143 4C61 4 22-44 18-125c-5-107 100-154 193-111 17 8 29 25 37 43l-32 9c-13-25-37-40-76-40-61 0-88 39-88 99 0 61 29 100 91 101 35 0 62-11 79-27v-45h-74v-28h105v86C228-13 192 4 143 4" id="bJ"/><path d="M197 0v-115H63V0H30v-248h33v105h134v-105h34V0h-34" id="bK"/><g id="u"><use transform="matrix(0.05,0,0,0.05,0,0)" xlink:href="#bJ"/><use transform="matrix(0.05,0,0,0.05,14,0)" xlink:href="#bt"/><use transform="matrix(0.05,0,0,0.05,17.95,0)" xlink:href="#bm"/><use transform="matrix(0.05,0,0,0.05,22.95,0)" xlink:href="#bK"/><use transform="matrix(0.05,0,0,0.05,35.9,0)" xlink:href="#bA"/><use transform="matrix(0.05,0,0,0.05,45.9,0)" xlink:href="#bz"/></g><g id="v"><use transform="matrix(0.05,0,0,0.05,0,0)" xlink:href="#bt"/><use transform="matrix(0.05,0,0,0.05,3.95,0)" xlink:href="#bv"/><use transform="matrix(0.05,0,0,0.05,12.949999999999998,0)" xlink:href="#bv"/><use transform="matrix(0.05,0,0,0.05,21.95,0)" xlink:href="#bA"/><use transform="matrix(0.05,0,0,0.05,31.950000000000003,0)" xlink:href="#bp"/></g><g id="w"><use transform="matrix(0.05,0,0,0.05,0,0)" xlink:href="#bt"/><use transform="matrix(0.05,0,0,0.05,3.95,0)" xlink:href="#bu"/><use transform="matrix(0.05,0,0,0.05,13.949999999999998,0)" xlink:href="#br"/><use transform="matrix(0.05,0,0,0.05,23.95,0)" xlink:href="#bt"/><use transform="matrix(0.05,0,0,0.05,27.899999999999995,0)" xlink:href="#bx"/><use transform="matrix(0.05,0,0,0.05,36.9,0)" xlink:href="#bq"/><use transform="matrix(0.05,0,0,0.05,46.9,0)" xlink:href="#bm"/><use transform="matrix(0.05,0,0,0.05,51.900000000000006,0)" xlink:href="#bp"/></g><g id="x"><use transform="matrix(0.05,0,0,0.05,0,0)" xlink:href="#br"/><use transform="matrix(0.05,0,0,0.05,10,0)" xlink:href="#bp"/><use transform="matrix(0.05,0,0,0.05,20,0)" xlink:href="#bv"/><use transform="matrix(0.05,0,0,0.05,29,0)" xlink:href="#bt"/><use transform="matrix(0.05,0,0,0.05,32.95,0)" xlink:href="#bo"/><use transform="matrix(0.05,0,0,0.05,38.900000000000006,0)" xlink:href="#bp"/></g><g id="y"><use transform="matrix(0.05,0,0,0.05,0,0)" xlink:href="#bq"/><use transform="matrix(0.05,0,0,0.05,10,0)" xlink:href="#br"/><use transform="matrix(0.05,0,0,0.05,20,0)" xlink:href="#br"/></g><path d="M206 0h-36l-40-164L89 0H53L-1-190h32L70-26l43-164h34l41 164 42-164h31" id="bL"/><g id="z"><use transform="matrix(0.05,0,0,0.05,0,0)" xlink:href="#bu"/><use transform="matrix(0.05,0,0,0.05,10,0)" xlink:href="#bp"/><use transform="matrix(0.05,0,0,0.05,20,0)" xlink:href="#bL"/></g><g id="A"><use transform="matrix(0.05,0,0,0.05,0,0)" xlink:href="#br"/><use transform="matrix(0.05,0,0,0.05,10,0)" xlink:href="#bq"/><use transform="matrix(0.05,0,0,0.05,20,0)" xlink:href="#bm"/><use transform="matrix(0.05,0,0,0.05,25,0)" xlink:href="#bq"/><use transform="matrix(0.05,0,0,0.05,35,0)" xlink:href="#bv"/><use transform="matrix(0.05,0,0,0.05,44,0)" xlink:href="#bp"/><use transform="matrix(0.05,0,0,0.05,54,0)" xlink:href="#bm"/><use transform="matrix(0.05,0,0,0.05,59,0)" xlink:href="#bC"/></g><path d="M160-131c35 5 61 23 61 61C221 17 115-2 30 0v-248c76 3 177-17 177 60 0 33-19 50-47 57zm-97-11c50-1 110 9 110-42 0-47-63-36-110-37v79zm0 115c55-2 124 14 124-45 0-56-70-42-124-44v89" id="bM"/><g id="B"><use transform="matrix(0.05,0,0,0.05,0,0)" xlink:href="#bM"/><use transform="matrix(0.05,0,0,0.05,12,0)" xlink:href="#bn"/><use transform="matrix(0.05,0,0,0.05,22,0)" xlink:href="#bm"/></g><g id="C"><use transform="matrix(0.05,0,0,0.05,0,0)" xlink:href="#bB"/><use transform="matrix(0.05,0,0,0.05,9,0)" xlink:href="#bt"/><use transform="matrix(0.05,0,0,0.05,12.949999999999998,0)" xlink:href="#bx"/><use transform="matrix(0.05,0,0,0.05,21.95,0)" xlink:href="#bB"/><use transform="matrix(0.05,0,0,0.05,30.950000000000003,0)" xlink:href="#bv"/></g><path d="M33-154v-36h34v36H33zM33 0v-36h34V0H33" id="bN"/><g id="D"><use transform="matrix(0.05,0,0,0.05,0,0)" xlink:href="#bt"/><use transform="matrix(0.05,0,0,0.05,3.95,0)" xlink:href="#bu"/><use transform="matrix(0.05,0,0,0.05,13.949999999999998,0)" xlink:href="#bN"/></g><g id="E"><use transform="matrix(0.05,0,0,0.05,0,0)" xlink:href="#bx"/><use transform="matrix(0.05,0,0,0.05,9,0)" xlink:href="#bo"/><use transform="matrix(0.05,0,0,0.05,14.949999999999998,0)" xlink:href="#bp"/><use transform="matrix(0.05,0,0,0.05,24.95,0)" xlink:href="#bq"/><use transform="matrix(0.05,0,0,0.05,34.95,0)" xlink:href="#bm"/><use transform="matrix(0.05,0,0,0.05,39.95,0)" xlink:href="#bp"/><use transform="matrix(0.05,0,0,0.05,49.95,0)" xlink:href="#bv"/></g><g id="F"><use transform="matrix(0.05,0,0,0.05,0,0)" xlink:href="#bm"/><use transform="matrix(0.05,0,0,0.05,5,0)" xlink:href="#bp"/><use transform="matrix(0.05,0,0,0.05,15,0)" xlink:href="#bs"/><use transform="matrix(0.05,0,0,0.05,29.950000000000003,0)" xlink:href="#bE"/><use transform="matrix(0.05,0,0,0.05,39.95,0)" xlink:href="#bn"/><use transform="matrix(0.05,0,0,0.05,49.95,0)" xlink:href="#bo"/><use transform="matrix(0.05,0,0,0.05,55.900000000000006,0)" xlink:href="#bq"/><use transform="matrix(0.05,0,0,0.05,65.9,0)" xlink:href="#bo"/><use transform="matrix(0.05,0,0,0.05,71.85000000000001,0)" xlink:href="#bH"/></g><g id="G"><use transform="matrix(0.05,0,0,0.05,0,0)" xlink:href="#bz"/><use transform="matrix(0.05,0,0,0.05,10,0)" xlink:href="#bA"/><use transform="matrix(0.05,0,0,0.05,20,0)" xlink:href="#bx"/><use transform="matrix(0.05,0,0,0.05,29,0)" xlink:href="#bB"/><use transform="matrix(0.05,0,0,0.05,38,0)" xlink:href="#bp"/><use transform="matrix(0.05,0,0,0.05,48,0)" xlink:href="#bm"/></g><g id="H"><use transform="matrix(0.05,0,0,0.05,0,0)" xlink:href="#bq"/><use transform="matrix(0.05,0,0,0.05,10,0)" xlink:href="#bu"/><use transform="matrix(0.05,0,0,0.05,20,0)" xlink:href="#br"/></g><path d="M108 0H70L1-190h34L89-25l56-165h34" id="bO"/><g id="I"><use transform="matrix(0.05,0,0,0.05,0,0)" xlink:href="#bE"/><use transform="matrix(0.05,0,0,0.05,10,0)" xlink:href="#bo"/><use transform="matrix(0.05,0,0,0.05,15.949999999999998,0)" xlink:href="#bn"/><use transform="matrix(0.05,0,0,0.05,25.950000000000003,0)" xlink:href="#bO"/><use transform="matrix(0.05,0,0,0.05,34.95,0)" xlink:href="#bt"/><use transform="matrix(0.05,0,0,0.05,38.900000000000006,0)" xlink:href="#br"/><use transform="matrix(0.05,0,0,0.05,48.900000000000006,0)" xlink:href="#bp"/><use transform="matrix(0.05,0,0,0.05,58.900000000000006,0)" xlink:href="#bv"/></g><g id="J"><use transform="matrix(0.05,0,0,0.05,0,0)" xlink:href="#bx"/><use transform="matrix(0.05,0,0,0.05,9,0)" xlink:href="#bo"/><use transform="matrix(0.05,0,0,0.05,14.949999999999998,0)" xlink:href="#bp"/><use transform="matrix(0.05,0,0,0.05,24.95,0)" xlink:href="#br"/><use transform="matrix(0.05,0,0,0.05,34.95,0)" xlink:href="#bp"/><use transform="matrix(0.05,0,0,0.05,44.95,0)" xlink:href="#bu"/><use transform="matrix(0.05,0,0,0.05,54.95,0)" xlink:href="#bm"/><use transform="matrix(0.05,0,0,0.05,59.95,0)" xlink:href="#bt"/><use transform="matrix(0.05,0,0,0.05,63.900000000000006,0)" xlink:href="#bq"/><use transform="matrix(0.05,0,0,0.05,73.9,0)" xlink:href="#bF"/><use transform="matrix(0.05,0,0,0.05,77.85000000000001,0)" xlink:href="#bv"/></g><g id="K"><use transform="matrix(0.05,0,0,0.05,0,0)" xlink:href="#bA"/><use transform="matrix(0.05,0,0,0.05,10,0)" xlink:href="#bv"/><use transform="matrix(0.05,0,0,0.05,19,0)" xlink:href="#bp"/><use transform="matrix(0.05,0,0,0.05,29,0)" xlink:href="#bo"/></g><g id="L"><use transform="matrix(0.05,0,0,0.05,0,0)" xlink:href="#bn"/><use transform="matrix(0.05,0,0,0.05,10,0)" xlink:href="#bE"/><use transform="matrix(0.05,0,0,0.05,20,0)" xlink:href="#bp"/><use transform="matrix(0.05,0,0,0.05,30,0)" xlink:href="#bu"/></g><g id="M"><use transform="matrix(0.05,0,0,0.05,0,0)" xlink:href="#bv"/><use transform="matrix(0.05,0,0,0.05,9,0)" xlink:href="#bm"/><use transform="matrix(0.05,0,0,0.05,14,0)" xlink:href="#bn"/><use transform="matrix(0.05,0,0,0.05,24,0)" xlink:href="#bo"/><use transform="matrix(0.05,0,0,0.05,29.950000000000003,0)" xlink:href="#bp"/></g><path d="M103-251c84 0 111 97 45 133-19 10-37 24-39 52H78c0-63 77-55 77-114 0-30-21-42-52-43-32 0-53 17-56 46l-32-2c7-45 34-72 88-72zM77 0v-35h34V0H77" id="bP"/><g id="N"><use transform="matrix(0.05,0,0,0.05,0,0)" xlink:href="#bv"/><use transform="matrix(0.05,0,0,0.05,9,0)" xlink:href="#bA"/><use transform="matrix(0.05,0,0,0.05,19,0)" xlink:href="#bx"/><use transform="matrix(0.05,0,0,0.05,28,0)" xlink:href="#bx"/><use transform="matrix(0.05,0,0,0.05,37,0)" xlink:href="#bp"/><use transform="matrix(0.05,0,0,0.05,47,0)" xlink:href="#bp"/><use transform="matrix(0.05,0,0,0.05,57,0)" xlink:href="#br"/><use transform="matrix(0.05,0,0,0.05,67,0)" xlink:href="#bv"/><use transform="matrix(0.05,0,0,0.05,76,0)" xlink:href="#bP"/></g><g id="O"><use transform="matrix(0.05,0,0,0.05,0,0)" xlink:href="#bm"/><use transform="matrix(0.05,0,0,0.05,5,0)" xlink:href="#bo"/><use transform="matrix(0.05,0,0,0.05,10.95,0)" xlink:href="#bt"/><use transform="matrix(0.05,0,0,0.05,14.899999999999999,0)" xlink:href="#bp"/><use transform="matrix(0.05,0,0,0.05,24.9,0)" xlink:href="#bv"/></g><g id="P"><use transform="matrix(0.05,0,0,0.05,0,0)" xlink:href="#bn"/><use transform="matrix(0.05,0,0,0.05,10,0)" xlink:href="#bE"/><use transform="matrix(0.05,0,0,0.05,20,0)" xlink:href="#bp"/><use transform="matrix(0.05,0,0,0.05,30,0)" xlink:href="#bu"/></g><g id="Q"><use transform="matrix(0.05,0,0,0.05,0,0)" xlink:href="#bv"/><use transform="matrix(0.05,0,0,0.05,9,0)" xlink:href="#bm"/><use transform="matrix(0.05,0,0,0.05,14,0)" xlink:href="#bn"/><use transform="matrix(0.05,0,0,0.05,24,0)" xlink:href="#bo"/><use transform="matrix(0.05,0,0,0.05,29.950000000000003,0)" xlink:href="#bp"/></g><g id="R"><use transform="matrix(0.05,0,0,0.05,0,0)" xlink:href="#bL"/><use transform="matrix(0.05,0,0,0.05,12.950000000000001,0)" xlink:href="#bt"/><use transform="matrix(0.05,0,0,0.05,16.900000000000002,0)" xlink:href="#bm"/><use transform="matrix(0.05,0,0,0.05,21.900000000000002,0)" xlink:href="#bI"/></g><path d="M141 0L90-78 38 0H4l68-98-65-92h35l48 74 47-74h35l-64 92 68 98h-35" id="bQ"/><g id="S"><use transform="matrix(0.05,0,0,0.05,0,0)" xlink:href="#bQ"/><use transform="matrix(0.05,0,0,0.05,9,0)" xlink:href="#bq"/><use transform="matrix(0.05,0,0,0.05,19,0)" xlink:href="#bo"/><use transform="matrix(0.05,0,0,0.05,24.95,0)" xlink:href="#bo"/><use transform="matrix(0.05,0,0,0.05,30.899999999999995,0)" xlink:href="#bq"/><use transform="matrix(0.05,0,0,0.05,40.9,0)" xlink:href="#bH"/></g><g id="T"><use transform="matrix(0.05,0,0,0.05,0,0)" xlink:href="#bp"/><use transform="matrix(0.05,0,0,0.05,10,0)" xlink:href="#bQ"/><use transform="matrix(0.05,0,0,0.05,19,0)" xlink:href="#bm"/><use transform="matrix(0.05,0,0,0.05,24,0)" xlink:href="#bo"/><use transform="matrix(0.05,0,0,0.05,29.950000000000003,0)" xlink:href="#bq"/><use transform="matrix(0.05,0,0,0.05,39.95,0)" xlink:href="#bx"/><use transform="matrix(0.05,0,0,0.05,48.95,0)" xlink:href="#bm"/><use transform="matrix(0.05,0,0,0.05,53.95,0)" xlink:href="#bv"/></g><g id="U"><use transform="matrix(0.05,0,0,0.05,0,0)" xlink:href="#br"/><use transform="matrix(0.05,0,0,0.05,10,0)" xlink:href="#bq"/><use transform="matrix(0.05,0,0,0.05,20,0)" xlink:href="#bm"/><use transform="matrix(0.05,0,0,0.05,25,0)" xlink:href="#bq"/><use transform="matrix(0.05,0,0,0.05,35,0)" xlink:href="#bv"/><use transform="matrix(0.05,0,0,0.05,44,0)" xlink:href="#bp"/><use transform="matrix(0.05,0,0,0.05,54,0)" xlink:href="#bm"/></g><g id="V"><use transform="matrix(0.05,0,0,0.05,0,0)" xlink:href="#bs"/><use transform="matrix(0.05,0,0,0.05,14.950000000000001,0)" xlink:href="#bp"/><use transform="matrix(0.05,0,0,0.05,24.950000000000003,0)" xlink:href="#bm"/><use transform="matrix(0.05,0,0,0.05,29.950000000000003,0)" xlink:href="#bq"/><use transform="matrix(0.05,0,0,0.05,39.95,0)" xlink:href="#br"/><use transform="matrix(0.05,0,0,0.05,49.95,0)" xlink:href="#bq"/><use transform="matrix(0.05,0,0,0.05,59.95,0)" xlink:href="#bm"/><use transform="matrix(0.05,0,0,0.05,64.95,0)" xlink:href="#bq"/></g><g id="W"><use transform="matrix(0.05,0,0,0.05,0,0)" xlink:href="#bq"/><use transform="matrix(0.05,0,0,0.05,10,0)" xlink:href="#bu"/><use transform="matrix(0.05,0,0,0.05,20,0)" xlink:href="#br"/></g><g id="X"><use transform="matrix(0.05,0,0,0.05,0,0)" xlink:href="#bq"/><use transform="matrix(0.05,0,0,0.05,10,0)" xlink:href="#bv"/><use transform="matrix(0.05,0,0,0.05,19,0)" xlink:href="#bB"/><use transform="matrix(0.05,0,0,0.05,28,0)" xlink:href="#bv"/></g><g id="Y"><use transform="matrix(0.05,0,0,0.05,0,0)" xlink:href="#bA"/><use transform="matrix(0.05,0,0,0.05,10,0)" xlink:href="#bv"/><use transform="matrix(0.05,0,0,0.05,19,0)" xlink:href="#bp"/><use transform="matrix(0.05,0,0,0.05,29,0)" xlink:href="#bo"/></g><g id="Z"><use transform="matrix(0.05,0,0,0.05,0,0)" xlink:href="#bO"/><use transform="matrix(0.05,0,0,0.05,9,0)" xlink:href="#bp"/><use transform="matrix(0.05,0,0,0.05,19,0)" xlink:href="#bo"/><use transform="matrix(0.05,0,0,0.05,24.95,0)" xlink:href="#bt"/><use transform="matrix(0.05,0,0,0.05,28.899999999999995,0)" xlink:href="#bw"/><use transform="matrix(0.05,0,0,0.05,33.9,0)" xlink:href="#bH"/></g><g id="aa"><use transform="matrix(0.05,0,0,0.05,0,0)" xlink:href="#bx"/><use transform="matrix(0.05,0,0,0.05,9,0)" xlink:href="#bn"/><use transform="matrix(0.05,0,0,0.05,19,0)" xlink:href="#bo"/><use transform="matrix(0.05,0,0,0.05,24.95,0)" xlink:href="#bo"/><use transform="matrix(0.05,0,0,0.05,30.899999999999995,0)" xlink:href="#bp"/><use transform="matrix(0.05,0,0,0.05,40.9,0)" xlink:href="#bx"/><use transform="matrix(0.05,0,0,0.05,49.9,0)" xlink:href="#bm"/><use transform="matrix(0.05,0,0,0.05,54.900000000000006,0)" xlink:href="#bu"/><use transform="matrix(0.05,0,0,0.05,64.9,0)" xlink:href="#bp"/><use transform="matrix(0.05,0,0,0.05,74.9,0)" xlink:href="#bv"/><use transform="matrix(0.05,0,0,0.05,83.9,0)" xlink:href="#bv"/></g><g id="ab"><use transform="matrix(0.05,0,0,0.05,0,0)" xlink:href="#bo"/><use transform="matrix(0.05,0,0,0.05,5.95,0)" xlink:href="#bA"/><use transform="matrix(0.05,0,0,0.05,15.949999999999998,0)" xlink:href="#bu"/><use transform="matrix(0.05,0,0,0.05,25.950000000000003,0)" xlink:href="#bv"/></g><g id="ac"><use transform="matrix(0.05,0,0,0.05,0,0)" xlink:href="#bq"/><use transform="matrix(0.05,0,0,0.05,10,0)" xlink:href="#bA"/><use transform="matrix(0.05,0,0,0.05,20,0)" xlink:href="#bm"/><use transform="matrix(0.05,0,0,0.05,25,0)" xlink:href="#bn"/><use transform="matrix(0.05,0,0,0.05,35,0)" xlink:href="#bs"/><use transform="matrix(0.05,0,0,0.05,49.95,0)" xlink:href="#bq"/><use transform="matrix(0.05,0,0,0.05,59.95,0)" xlink:href="#bm"/><use transform="matrix(0.05,0,0,0.05,64.95,0)" xlink:href="#bp"/><use transform="matrix(0.05,0,0,0.05,74.95,0)" xlink:href="#br"/></g><g id="ad"><use transform="matrix(0.05,0,0,0.05,0,0)" xlink:href="#bs"/><use transform="matrix(0.05,0,0,0.05,14.950000000000001,0)" xlink:href="#bp"/><use transform="matrix(0.05,0,0,0.05,24.950000000000003,0)" xlink:href="#bm"/><use transform="matrix(0.05,0,0,0.05,29.950000000000003,0)" xlink:href="#bq"/><use transform="matrix(0.05,0,0,0.05,39.95,0)" xlink:href="#br"/><use transform="matrix(0.05,0,0,0.05,49.95,0)" xlink:href="#bq"/><use transform="matrix(0.05,0,0,0.05,59.95,0)" xlink:href="#bm"/><use transform="matrix(0.05,0,0,0.05,64.95,0)" xlink:href="#bq"/></g><g id="ae"><use transform="matrix(0.05,0,0,0.05,0,0)" xlink:href="#bx"/><use transform="matrix(0.05,0,0,0.05,9,0)" xlink:href="#bn"/><use transform="matrix(0.05,0,0,0.05,19,0)" xlink:href="#bs"/><use transform="matrix(0.05,0,0,0.05,33.95,0)" xlink:href="#bE"/><use transform="matrix(0.05,0,0,0.05,43.95,0)" xlink:href="#bF"/><use transform="matrix(0.05,0,0,0.05,47.900000000000006,0)" xlink:href="#bt"/><use transform="matrix(0.05,0,0,0.05,51.85,0)" xlink:href="#bq"/><use transform="matrix(0.05,0,0,0.05,61.85,0)" xlink:href="#bu"/><use transform="matrix(0.05,0,0,0.05,71.85000000000001,0)" xlink:href="#bx"/><use transform="matrix(0.05,0,0,0.05,80.85000000000001,0)" xlink:href="#bp"/></g><g id="af"><use transform="matrix(0.05,0,0,0.05,0,0)" xlink:href="#bx"/><use transform="matrix(0.05,0,0,0.05,9,0)" xlink:href="#bI"/><use transform="matrix(0.05,0,0,0.05,19,0)" xlink:href="#bp"/><use transform="matrix(0.05,0,0,0.05,29,0)" xlink:href="#bx"/><use transform="matrix(0.05,0,0,0.05,38,0)" xlink:href="#bB"/><use transform="matrix(0.05,0,0,0.05,47,0)" xlink:href="#bv"/></g><path d="M87 75C49 33 22-17 22-94c0-76 28-126 65-167h31c-38 41-64 92-64 168S80 34 118 75H87" id="bR"/><g id="ag"><use transform="matrix(0.05,0,0,0.05,0,0)" xlink:href="#bR"/><use transform="matrix(0.05,0,0,0.05,5.95,0)" xlink:href="#bp"/><use transform="matrix(0.05,0,0,0.05,15.949999999999998,0)" xlink:href="#bC"/><use transform="matrix(0.05,0,0,0.05,20.95,0)" xlink:href="#by"/><use transform="matrix(0.05,0,0,0.05,30.950000000000003,0)" xlink:href="#bC"/></g><path d="M68-38c1 34 0 65-14 84H32c9-13 17-26 17-46H33v-38h35" id="bS"/><g id="ah"><use transform="matrix(0.05,0,0,0.05,0,0)" xlink:href="#bF"/><use transform="matrix(0.05,0,0,0.05,3.95,0)" xlink:href="#bt"/><use transform="matrix(0.05,0,0,0.05,7.9,0)" xlink:href="#bx"/><use transform="matrix(0.05,0,0,0.05,16.9,0)" xlink:href="#bp"/><use transform="matrix(0.05,0,0,0.05,26.899999999999995,0)" xlink:href="#bu"/><use transform="matrix(0.05,0,0,0.05,36.9,0)" xlink:href="#bv"/><use transform="matrix(0.05,0,0,0.05,45.9,0)" xlink:href="#bp"/><use transform="matrix(0.05,0,0,0.05,55.900000000000006,0)" xlink:href="#bS"/></g><path d="M212-179c-10-28-35-45-73-45-59 0-87 40-87 99 0 60 29 101 89 101 43 0 62-24 78-52l27 14C228-24 195 4 139 4 59 4 22-46 18-125c-6-104 99-153 187-111 19 9 31 26 39 46" id="bT"/><path d="M63-220v92h138v28H63V0H30v-248h175v28H63" id="bU"/><path d="M33-261c38 41 65 92 65 168S71 34 33 75H2C39 34 66-17 66-93S39-220 2-261h31" id="bV"/><g id="ai"><use transform="matrix(0.05,0,0,0.05,0,0)" xlink:href="#bT"/><use transform="matrix(0.05,0,0,0.05,12.950000000000001,0)" xlink:href="#bU"/><use transform="matrix(0.05,0,0,0.05,23.900000000000002,0)" xlink:href="#bV"/></g><g id="aj"><use transform="matrix(0.07407407407407408,0,0,0.07407407407407408,0,0)" xlink:href="#bD"/><use transform="matrix(0.07407407407407408,0,0,0.07407407407407408,19.185185185185187,0)" xlink:href="#bE"/><use transform="matrix(0.07407407407407408,0,0,0.07407407407407408,34,0)" xlink:href="#bF"/><use transform="matrix(0.07407407407407408,0,0,0.07407407407407408,39.851851851851855,0)" xlink:href="#bn"/><use transform="matrix(0.07407407407407408,0,0,0.07407407407407408,54.66666666666667,0)" xlink:href="#bq"/><use transform="matrix(0.07407407407407408,0,0,0.07407407407407408,69.4814814814815,0)" xlink:href="#br"/></g><g id="ak"><use transform="matrix(0.07407407407407408,0,0,0.07407407407407408,0,0)" xlink:href="#bl"/><use transform="matrix(0.07407407407407408,0,0,0.07407407407407408,17.77777777777778,0)" xlink:href="#bm"/><use transform="matrix(0.07407407407407408,0,0,0.07407407407407408,25.185185185185187,0)" xlink:href="#bq"/><use transform="matrix(0.07407407407407408,0,0,0.07407407407407408,40,0)" xlink:href="#by"/><use transform="matrix(0.07407407407407408,0,0,0.07407407407407408,54.81481481481482,0)" xlink:href="#bp"/></g><path d="M137 0h-34L2-248h35l83 218 83-218h36" id="bW"/><g id="al"><use transform="matrix(0.07407407407407408,0,0,0.07407407407407408,0,0)" xlink:href="#bW"/><use transform="matrix(0.07407407407407408,0,0,0.07407407407407408,15.777777777777779,0)" xlink:href="#bq"/><use transform="matrix(0.07407407407407408,0,0,0.07407407407407408,30.592592592592595,0)" xlink:href="#bF"/><use transform="matrix(0.07407407407407408,0,0,0.07407407407407408,36.44444444444445,0)" xlink:href="#bt"/><use transform="matrix(0.07407407407407408,0,0,0.07407407407407408,42.296296296296305,0)" xlink:href="#br"/><use transform="matrix(0.07407407407407408,0,0,0.07407407407407408,57.11111111111112,0)" xlink:href="#bq"/><use transform="matrix(0.07407407407407408,0,0,0.07407407407407408,71.92592592592594,0)" xlink:href="#bm"/><use transform="matrix(0.07407407407407408,0,0,0.07407407407407408,79.33333333333334,0)" xlink:href="#bt"/><use transform="matrix(0.07407407407407408,0,0,0.07407407407407408,85.18518518518519,0)" xlink:href="#bn"/><use transform="matrix(0.07407407407407408,0,0,0.07407407407407408,100,0)" xlink:href="#bu"/></g><g id="am"><use transform="matrix(0.05,0,0,0.05,0,0)" xlink:href="#bu"/><use transform="matrix(0.05,0,0,0.05,10,0)" xlink:href="#bn"/><use transform="matrix(0.05,0,0,0.05,20,0)" xlink:href="#bm"/><use transform="matrix(0.05,0,0,0.05,25,0)" xlink:href="#bt"/><use transform="matrix(0.05,0,0,0.05,28.950000000000003,0)" xlink:href="#bw"/><use transform="matrix(0.05,0,0,0.05,33.95,0)" xlink:href="#bt"/><use transform="matrix(0.05,0,0,0.05,37.900000000000006,0)" xlink:href="#bp"/><use transform="matrix(0.05,0,0,0.05,47.900000000000006,0)" xlink:href="#bv"/></g><g id="an"><use transform="matrix(0.05,0,0,0.05,0,0)" xlink:href="#bM"/><use transform="matrix(0.05,0,0,0.05,12,0)" xlink:href="#bn"/><use transform="matrix(0.05,0,0,0.05,22,0)" xlink:href="#bm"/></g><g id="ao"><use transform="matrix(0.05,0,0,0.05,0,0)" xlink:href="#bO"/><use transform="matrix(0.05,0,0,0.05,9,0)" xlink:href="#bt"/><use transform="matrix(0.05,0,0,0.05,12.949999999999998,0)" xlink:href="#bq"/></g><g id="ap"><use transform="matrix(0.05,0,0,0.05,0,0)" xlink:href="#bm"/><use transform="matrix(0.05,0,0,0.05,5,0)" xlink:href="#bI"/><use transform="matrix(0.05,0,0,0.05,15,0)" xlink:href="#bq"/><use transform="matrix(0.05,0,0,0.05,25,0)" xlink:href="#bm"/></g><g id="aq"><use transform="matrix(0.05,0,0,0.05,0,0)" xlink:href="#bA"/><use transform="matrix(0.05,0,0,0.05,10,0)" xlink:href="#bE"/><use transform="matrix(0.05,0,0,0.05,20,0)" xlink:href="#bF"/><use transform="matrix(0.05,0,0,0.05,23.95,0)" xlink:href="#bn"/><use transform="matrix(0.05,0,0,0.05,33.95,0)" xlink:href="#bq"/><use transform="matrix(0.05,0,0,0.05,43.95,0)" xlink:href="#br"/></g><g id="ar"><use transform="matrix(0.05,0,0,0.05,0,0)" xlink:href="#bt"/><use transform="matrix(0.05,0,0,0.05,3.95,0)" xlink:href="#bv"/></g><g id="as"><use transform="matrix(0.05,0,0,0.05,0,0)" xlink:href="#bx"/><use transform="matrix(0.05,0,0,0.05,9,0)" xlink:href="#bn"/><use transform="matrix(0.05,0,0,0.05,19,0)" xlink:href="#bs"/><use transform="matrix(0.05,0,0,0.05,33.95,0)" xlink:href="#bE"/><use transform="matrix(0.05,0,0,0.05,43.95,0)" xlink:href="#bF"/><use transform="matrix(0.05,0,0,0.05,47.900000000000006,0)" xlink:href="#bp"/><use transform="matrix(0.05,0,0,0.05,57.900000000000006,0)" xlink:href="#bm"/><use transform="matrix(0.05,0,0,0.05,62.900000000000006,0)" xlink:href="#bp"/></g><path d="M190 0L58-211 59 0H30v-248h39L202-35l-2-213h31V0h-41" id="bX"/><g id="at"><use transform="matrix(0.05,0,0,0.05,0,0)" xlink:href="#bX"/><use transform="matrix(0.05,0,0,0.05,12.950000000000001,0)" xlink:href="#bn"/></g><path d="M137-103V0h-34v-103L8-248h37l75 118 75-118h37" id="bY"/><g id="au"><use transform="matrix(0.05,0,0,0.05,0,0)" xlink:href="#bY"/><use transform="matrix(0.05,0,0,0.05,10.35,0)" xlink:href="#bp"/><use transform="matrix(0.05,0,0,0.05,20.35,0)" xlink:href="#bv"/></g><g id="av"><use transform="matrix(0.05,0,0,0.05,0,0)" xlink:href="#bA"/><use transform="matrix(0.05,0,0,0.05,10,0)" xlink:href="#bv"/><use transform="matrix(0.05,0,0,0.05,19,0)" xlink:href="#bp"/><use transform="matrix(0.05,0,0,0.05,29,0)" xlink:href="#bo"/></g><g id="aw"><use transform="matrix(0.05,0,0,0.05,0,0)" xlink:href="#bq"/><use transform="matrix(0.05,0,0,0.05,10,0)" xlink:href="#bE"/><use transform="matrix(0.05,0,0,0.05,20,0)" xlink:href="#bE"/><use transform="matrix(0.05,0,0,0.05,30,0)" xlink:href="#bo"/><use transform="matrix(0.05,0,0,0.05,35.95,0)" xlink:href="#bn"/><use transform="matrix(0.05,0,0,0.05,45.95,0)" xlink:href="#bO"/><use transform="matrix(0.05,0,0,0.05,54.95,0)" xlink:href="#bp"/><use transform="matrix(0.05,0,0,0.05,64.95,0)" xlink:href="#bv"/><use transform="matrix(0.05,0,0,0.05,73.95,0)" xlink:href="#bP"/></g><g id="ax"><use transform="matrix(0.05,0,0,0.05,0,0)" xlink:href="#bx"/><use transform="matrix(0.05,0,0,0.05,9,0)" xlink:href="#bI"/><use transform="matrix(0.05,0,0,0.05,19,0)" xlink:href="#bp"/><use transform="matrix(0.05,0,0,0.05,29,0)" xlink:href="#bx"/><use transform="matrix(0.05,0,0,0.05,38,0)" xlink:href="#bB"/><use transform="matrix(0.05,0,0,0.05,47,0)" xlink:href="#bv"/></g><g id="ay"><use transform="matrix(0.05,0,0,0.05,0,0)" xlink:href="#bn"/><use transform="matrix(0.05,0,0,0.05,10,0)" xlink:href="#bB"/><use transform="matrix(0.05,0,0,0.05,19,0)" xlink:href="#bP"/></g><g id="az"><use transform="matrix(0.05,0,0,0.05,0,0)" xlink:href="#bx"/><use transform="matrix(0.05,0,0,0.05,9,0)" xlink:href="#bn"/><use transform="matrix(0.05,0,0,0.05,19,0)" xlink:href="#bE"/><use transform="matrix(0.05,0,0,0.05,29,0)" xlink:href="#bt"/><use transform="matrix(0.05,0,0,0.05,32.95,0)" xlink:href="#bp"/><use transform="matrix(0.05,0,0,0.05,42.95,0)" xlink:href="#bv"/></g><g id="aA"><use transform="matrix(0.05,0,0,0.05,0,0)" xlink:href="#bw"/><use transform="matrix(0.05,0,0,0.05,5,0)" xlink:href="#bo"/><use transform="matrix(0.05,0,0,0.05,10.95,0)" xlink:href="#bn"/><use transform="matrix(0.05,0,0,0.05,20.95,0)" xlink:href="#bs"/></g><g id="aB"><use transform="matrix(0.05,0,0,0.05,0,0)" xlink:href="#bm"/><use transform="matrix(0.05,0,0,0.05,5,0)" xlink:href="#bn"/></g><g id="aC"><use transform="matrix(0.05,0,0,0.05,0,0)" xlink:href="#bE"/><use transform="matrix(0.05,0,0,0.05,10,0)" xlink:href="#bp"/><use transform="matrix(0.05,0,0,0.05,20,0)" xlink:href="#bo"/><use transform="matrix(0.05,0,0,0.05,25.950000000000003,0)" xlink:href="#bs"/><use transform="matrix(0.05,0,0,0.05,40.9,0)" xlink:href="#bq"/><use transform="matrix(0.05,0,0,0.05,50.9,0)" xlink:href="#bs"/><use transform="matrix(0.05,0,0,0.05,65.85,0)" xlink:href="#bp"/><use transform="matrix(0.05,0,0,0.05,75.85,0)" xlink:href="#bu"/><use transform="matrix(0.05,0,0,0.05,85.85,0)" xlink:href="#bm"/></g><path d="M127-220V0H93v-220H8v-28h204v28h-85" id="bZ"/><path d="M205 0l-28-72H64L36 0H1l101-248h38L239 0h-34zm-38-99l-47-123c-12 45-31 82-46 123h93" id="ca"/><g id="aD"><use transform="matrix(0.05,0,0,0.05,0,0)" xlink:href="#bl"/><use transform="matrix(0.05,0,0,0.05,12,0)" xlink:href="#bZ"/><use transform="matrix(0.05,0,0,0.05,21.6,0)" xlink:href="#ca"/><use transform="matrix(0.05,0,0,0.05,33.6,0)" xlink:href="#bT"/></g><g id="aE"><use transform="matrix(0.05,0,0,0.05,0,0)" xlink:href="#bt"/><use transform="matrix(0.05,0,0,0.05,3.95,0)" xlink:href="#bm"/><use transform="matrix(0.05,0,0,0.05,8.95,0)" xlink:href="#bp"/><use transform="matrix(0.05,0,0,0.05,18.95,0)" xlink:href="#bs"/></g><path d="M118-107v75H92v-75H18v-26h74v-75h26v75h74v26h-74" id="cb"/><use transform="matrix(0.05,0,0,0.05,0,0)" xlink:href="#cb" id="aF"/><g id="aG"><use transform="matrix(0.05,0,0,0.05,0,0)" xlink:href="#bx"/><use transform="matrix(0.05,0,0,0.05,9,0)" xlink:href="#bq"/><use transform="matrix(0.05,0,0,0.05,19,0)" xlink:href="#bm"/><use transform="matrix(0.05,0,0,0.05,24,0)" xlink:href="#bq"/><use transform="matrix(0.05,0,0,0.05,34,0)" xlink:href="#bF"/><use transform="matrix(0.05,0,0,0.05,37.95,0)" xlink:href="#bn"/><use transform="matrix(0.05,0,0,0.05,47.95,0)" xlink:href="#by"/></g><g id="aH"><use transform="matrix(0.05,0,0,0.05,0,0)" xlink:href="#bp"/><use transform="matrix(0.05,0,0,0.05,10,0)" xlink:href="#bu"/><use transform="matrix(0.05,0,0,0.05,20,0)" xlink:href="#bm"/><use transform="matrix(0.05,0,0,0.05,25,0)" xlink:href="#bo"/><use transform="matrix(0.05,0,0,0.05,30.950000000000003,0)" xlink:href="#bt"/><use transform="matrix(0.05,0,0,0.05,34.9,0)" xlink:href="#bp"/><use transform="matrix(0.05,0,0,0.05,44.9,0)" xlink:href="#bv"/></g><g id="aI"><use transform="matrix(0.05,0,0,0.05,0,0)" xlink:href="#bE"/><use transform="matrix(0.05,0,0,0.05,10,0)" xlink:href="#bA"/><use transform="matrix(0.05,0,0,0.05,20,0)" xlink:href="#bF"/><use transform="matrix(0.05,0,0,0.05,23.95,0)" xlink:href="#bF"/></g><path d="M145-31C134-9 116 4 85 4 32 4 16-35 15-94c0-59 17-99 70-100 32-1 48 14 60 33 0-11-1-24 2-32h30l-1 268h-32zM93-21c41 0 51-33 51-76s-8-73-50-73c-40 0-46 35-46 75s5 74 45 74" id="cc"/><g id="aJ"><use transform="matrix(0.05,0,0,0.05,0,0)" xlink:href="#bo"/><use transform="matrix(0.05,0,0,0.05,5.95,0)" xlink:href="#bp"/><use transform="matrix(0.05,0,0,0.05,15.949999999999998,0)" xlink:href="#cc"/><use transform="matrix(0.05,0,0,0.05,25.950000000000003,0)" xlink:href="#bA"/><use transform="matrix(0.05,0,0,0.05,35.95,0)" xlink:href="#bp"/><use transform="matrix(0.05,0,0,0.05,45.95,0)" xlink:href="#bv"/><use transform="matrix(0.05,0,0,0.05,54.95,0)" xlink:href="#bm"/></g><g id="aK"><use transform="matrix(0.05,0,0,0.05,0,0)" xlink:href="#bl"/><use transform="matrix(0.05,0,0,0.05,12,0)" xlink:href="#bZ"/><use transform="matrix(0.05,0,0,0.05,21.6,0)" xlink:href="#ca"/><use transform="matrix(0.05,0,0,0.05,33.6,0)" xlink:href="#bT"/></g><g id="aL"><use transform="matrix(0.05,0,0,0.05,0,0)" xlink:href="#bp"/><use transform="matrix(0.05,0,0,0.05,10,0)" xlink:href="#bu"/><use transform="matrix(0.05,0,0,0.05,20,0)" xlink:href="#bm"/><use transform="matrix(0.05,0,0,0.05,25,0)" xlink:href="#bo"/><use transform="matrix(0.05,0,0,0.05,30.950000000000003,0)" xlink:href="#bt"/><use transform="matrix(0.05,0,0,0.05,34.9,0)" xlink:href="#bp"/><use transform="matrix(0.05,0,0,0.05,44.9,0)" xlink:href="#bv"/></g><g id="aM"><use transform="matrix(0.05,0,0,0.05,0,0)" xlink:href="#bs"/><use transform="matrix(0.05,0,0,0.05,14.950000000000001,0)" xlink:href="#bq"/><use transform="matrix(0.05,0,0,0.05,24.950000000000003,0)" xlink:href="#bv"/><use transform="matrix(0.05,0,0,0.05,33.95,0)" xlink:href="#bm"/><use transform="matrix(0.05,0,0,0.05,38.95,0)" xlink:href="#bp"/><use transform="matrix(0.05,0,0,0.05,48.95,0)" xlink:href="#bo"/></g><g id="aN"><use transform="matrix(0.05,0,0,0.05,0,0)" xlink:href="#bx"/><use transform="matrix(0.05,0,0,0.05,9,0)" xlink:href="#bq"/><use transform="matrix(0.05,0,0,0.05,19,0)" xlink:href="#bm"/><use transform="matrix(0.05,0,0,0.05,24,0)" xlink:href="#bq"/><use transform="matrix(0.05,0,0,0.05,34,0)" xlink:href="#bF"/><use transform="matrix(0.05,0,0,0.05,37.95,0)" xlink:href="#bn"/><use transform="matrix(0.05,0,0,0.05,47.95,0)" xlink:href="#by"/></g><g id="aO"><use transform="matrix(0.05,0,0,0.05,0,0)" xlink:href="#ca"/><use transform="matrix(0.05,0,0,0.05,12,0)" xlink:href="#br"/><use transform="matrix(0.05,0,0,0.05,22,0)" xlink:href="#bs"/><use transform="matrix(0.05,0,0,0.05,36.95,0)" xlink:href="#bt"/><use transform="matrix(0.05,0,0,0.05,40.900000000000006,0)" xlink:href="#bu"/></g><g id="aP"><use transform="matrix(0.05,0,0,0.05,0,0)" xlink:href="#bs"/><use transform="matrix(0.05,0,0,0.05,14.950000000000001,0)" xlink:href="#bq"/><use transform="matrix(0.05,0,0,0.05,24.950000000000003,0)" xlink:href="#bB"/><use transform="matrix(0.05,0,0,0.05,33.95,0)" xlink:href="#bp"/><use transform="matrix(0.05,0,0,0.05,43.95,0)" xlink:href="#bv"/></g><g id="aQ"><use transform="matrix(0.05,0,0,0.05,0,0)" xlink:href="#bq"/><use transform="matrix(0.05,0,0,0.05,10,0)" xlink:href="#bu"/><use transform="matrix(0.05,0,0,0.05,20,0)" xlink:href="#bH"/></g><g id="aR"><use transform="matrix(0.05,0,0,0.05,0,0)" xlink:href="#bu"/><use transform="matrix(0.05,0,0,0.05,10,0)" xlink:href="#bp"/><use transform="matrix(0.05,0,0,0.05,20,0)" xlink:href="#bx"/><use transform="matrix(0.05,0,0,0.05,29,0)" xlink:href="#bp"/><use transform="matrix(0.05,0,0,0.05,39,0)" xlink:href="#bv"/><use transform="matrix(0.05,0,0,0.05,48,0)" xlink:href="#bv"/><use transform="matrix(0.05,0,0,0.05,57,0)" xlink:href="#bq"/><use transform="matrix(0.05,0,0,0.05,67,0)" xlink:href="#bo"/><use transform="matrix(0.05,0,0,0.05,72.95,0)" xlink:href="#bH"/></g><g id="aS"><use transform="matrix(0.05,0,0,0.05,0,0)" xlink:href="#bm"/><use transform="matrix(0.05,0,0,0.05,5,0)" xlink:href="#bL"/><use transform="matrix(0.05,0,0,0.05,17.950000000000003,0)" xlink:href="#bp"/><use transform="matrix(0.05,0,0,0.05,27.950000000000003,0)" xlink:href="#bq"/><use transform="matrix(0.05,0,0,0.05,37.95,0)" xlink:href="#bB"/><use transform="matrix(0.05,0,0,0.05,46.95,0)" xlink:href="#bv"/></g><g id="aT"><use transform="matrix(0.05,0,0,0.05,0,0)" xlink:href="#bz"/><use transform="matrix(0.05,0,0,0.05,10,0)" xlink:href="#bH"/></g><g id="aU"><use transform="matrix(0.05,0,0,0.05,0,0)" xlink:href="#bp"/><use transform="matrix(0.05,0,0,0.05,10,0)" xlink:href="#br"/><use transform="matrix(0.05,0,0,0.05,20,0)" xlink:href="#bt"/><use transform="matrix(0.05,0,0,0.05,23.95,0)" xlink:href="#bm"/><use transform="matrix(0.05,0,0,0.05,28.950000000000003,0)" xlink:href="#bt"/><use transform="matrix(0.05,0,0,0.05,32.9,0)" xlink:href="#bu"/><use transform="matrix(0.05,0,0,0.05,42.9,0)" xlink:href="#by"/></g><g id="aV"><use transform="matrix(0.05,0,0,0.05,0,0)" xlink:href="#bm"/><use transform="matrix(0.05,0,0,0.05,5,0)" xlink:href="#bI"/><use transform="matrix(0.05,0,0,0.05,15,0)" xlink:href="#bp"/></g><path d="M30-248c87 1 191-15 191 75 0 78-77 80-158 76V0H30v-248zm33 125c57 0 124 11 124-50 0-59-68-47-124-48v98" id="cd"/><path d="M233-177c-1 41-23 64-60 70L243 0h-38l-65-103H63V0H30v-248c88 3 205-21 203 71zM63-129c60-2 137 13 137-47 0-61-80-42-137-45v92" id="ce"/><g id="aW"><use transform="matrix(0.05,0,0,0.05,0,0)" xlink:href="#cd"/><use transform="matrix(0.05,0,0,0.05,12,0)" xlink:href="#ce"/></g><g id="aX"><use transform="matrix(0.05,0,0,0.05,0,0)" xlink:href="#cd"/><use transform="matrix(0.05,0,0,0.05,12,0)" xlink:href="#ce"/></g><g id="aY"><use transform="matrix(0.05,0,0,0.05,0,0)" xlink:href="#br"/><use transform="matrix(0.05,0,0,0.05,10,0)" xlink:href="#bp"/><use transform="matrix(0.05,0,0,0.05,20,0)" xlink:href="#bx"/><use transform="matrix(0.05,0,0,0.05,29,0)" xlink:href="#bt"/><use transform="matrix(0.05,0,0,0.05,32.95,0)" xlink:href="#bv"/><use transform="matrix(0.05,0,0,0.05,41.95,0)" xlink:href="#bt"/><use transform="matrix(0.05,0,0,0.05,45.900000000000006,0)" xlink:href="#bn"/><use transform="matrix(0.05,0,0,0.05,55.900000000000006,0)" xlink:href="#bu"/></g><path d="M33 0v-248h34V0H33" id="cf"/><g id="aZ"><use transform="matrix(0.07407407407407408,0,0,0.07407407407407408,0,0)" xlink:href="#cf"/><use transform="matrix(0.07407407407407408,0,0,0.07407407407407408,7.407407407407408,0)" xlink:href="#bu"/><use transform="matrix(0.07407407407407408,0,0,0.07407407407407408,22.222222222222225,0)" xlink:href="#by"/><use transform="matrix(0.07407407407407408,0,0,0.07407407407407408,37.03703703703704,0)" xlink:href="#bp"/><use transform="matrix(0.07407407407407408,0,0,0.07407407407407408,51.85185185185186,0)" xlink:href="#bv"/><use transform="matrix(0.07407407407407408,0,0,0.07407407407407408,65.18518518518519,0)" xlink:href="#bm"/><use transform="matrix(0.07407407407407408,0,0,0.07407407407407408,72.5925925925926,0)" xlink:href="#bt"/><use transform="matrix(0.07407407407407408,0,0,0.07407407407407408,78.44444444444444,0)" xlink:href="#bn"/><use transform="matrix(0.07407407407407408,0,0,0.07407407407407408,93.25925925925927,0)" xlink:href="#bu"/></g><g id="ba"><use transform="matrix(0.05,0,0,0.05,0,0)" xlink:href="#bX"/><use transform="matrix(0.05,0,0,0.05,12.950000000000001,0)" xlink:href="#bp"/><use transform="matrix(0.05,0,0,0.05,22.950000000000003,0)" xlink:href="#bL"/></g><g id="bb"><use transform="matrix(0.05,0,0,0.05,0,0)" xlink:href="#bp"/><use transform="matrix(0.05,0,0,0.05,10,0)" xlink:href="#bu"/><use transform="matrix(0.05,0,0,0.05,20,0)" xlink:href="#bm"/><use transform="matrix(0.05,0,0,0.05,25,0)" xlink:href="#bp"/><use transform="matrix(0.05,0,0,0.05,35,0)" xlink:href="#bo"/><use transform="matrix(0.05,0,0,0.05,40.95,0)" xlink:href="#bv"/></g><g id="bc"><use transform="matrix(0.05,0,0,0.05,0,0)" xlink:href="#bs"/><use transform="matrix(0.05,0,0,0.05,14.950000000000001,0)" xlink:href="#bp"/><use transform="matrix(0.05,0,0,0.05,24.950000000000003,0)" xlink:href="#bo"/><use transform="matrix(0.05,0,0,0.05,30.900000000000002,0)" xlink:href="#by"/><use transform="matrix(0.05,0,0,0.05,40.900000000000006,0)" xlink:href="#bp"/></g><g id="bd"><use transform="matrix(0.05,0,0,0.05,0,0)" xlink:href="#bx"/><use transform="matrix(0.05,0,0,0.05,9,0)" xlink:href="#bF"/><use transform="matrix(0.05,0,0,0.05,12.949999999999998,0)" xlink:href="#bn"/><use transform="matrix(0.05,0,0,0.05,22.95,0)" xlink:href="#bv"/><use transform="matrix(0.05,0,0,0.05,31.950000000000003,0)" xlink:href="#bp"/></g><g id="be"><use transform="matrix(0.05,0,0,0.05,0,0)" xlink:href="#bx"/><use transform="matrix(0.05,0,0,0.05,9,0)" xlink:href="#bF"/><use transform="matrix(0.05,0,0,0.05,12.949999999999998,0)" xlink:href="#bn"/><use transform="matrix(0.05,0,0,0.05,22.95,0)" xlink:href="#bv"/><use transform="matrix(0.05,0,0,0.05,31.950000000000003,0)" xlink:href="#bp"/><use transform="matrix(0.05,0,0,0.05,41.95,0)" xlink:href="#bv"/></g><g id="bf"><use transform="matrix(0.05,0,0,0.05,0,0)" xlink:href="#bn"/><use transform="matrix(0.05,0,0,0.05,10,0)" xlink:href="#bo"/><use transform="matrix(0.05,0,0,0.05,15.949999999999998,0)" xlink:href="#bt"/><use transform="matrix(0.05,0,0,0.05,19.9,0)" xlink:href="#by"/><use transform="matrix(0.05,0,0,0.05,29.899999999999995,0)" xlink:href="#bt"/><use transform="matrix(0.05,0,0,0.05,33.85,0)" xlink:href="#bu"/><use transform="matrix(0.05,0,0,0.05,43.85,0)" xlink:href="#bq"/><use transform="matrix(0.05,0,0,0.05,53.85,0)" xlink:href="#bF"/></g><g id="bg"><use transform="matrix(0.05,0,0,0.05,0,0)" xlink:href="#bt"/><use transform="matrix(0.05,0,0,0.05,3.95,0)" xlink:href="#bv"/><use transform="matrix(0.05,0,0,0.05,12.949999999999998,0)" xlink:href="#bv"/><use transform="matrix(0.05,0,0,0.05,21.95,0)" xlink:href="#bA"/><use transform="matrix(0.05,0,0,0.05,31.950000000000003,0)" xlink:href="#bp"/></g><g id="bh"><use transform="matrix(0.05,0,0,0.05,0,0)" xlink:href="#br"/><use transform="matrix(0.05,0,0,0.05,10,0)" xlink:href="#bp"/><use transform="matrix(0.05,0,0,0.05,20,0)" xlink:href="#bF"/><use transform="matrix(0.05,0,0,0.05,23.95,0)" xlink:href="#bp"/><use transform="matrix(0.05,0,0,0.05,33.95,0)" xlink:href="#bm"/><use transform="matrix(0.05,0,0,0.05,38.95,0)" xlink:href="#bp"/><use transform="matrix(0.05,0,0,0.05,48.95,0)" xlink:href="#bv"/></g><g id="bi"><use transform="matrix(0.05,0,0,0.05,0,0)" xlink:href="#bw"/><use transform="matrix(0.05,0,0,0.05,5,0)" xlink:href="#bo"/><use transform="matrix(0.05,0,0,0.05,10.95,0)" xlink:href="#bn"/><use transform="matrix(0.05,0,0,0.05,20.95,0)" xlink:href="#bs"/></g><g id="bj"><use transform="matrix(0.05,0,0,0.05,0,0)" xlink:href="#bE"/><use transform="matrix(0.05,0,0,0.05,10,0)" xlink:href="#bp"/><use transform="matrix(0.05,0,0,0.05,20,0)" xlink:href="#bo"/><use transform="matrix(0.05,0,0,0.05,25.950000000000003,0)" xlink:href="#bs"/><use transform="matrix(0.05,0,0,0.05,40.9,0)" xlink:href="#bq"/><use transform="matrix(0.05,0,0,0.05,50.9,0)" xlink:href="#bu"/><use transform="matrix(0.05,0,0,0.05,60.900000000000006,0)" xlink:href="#bp"/><use transform="matrix(0.05,0,0,0.05,70.9,0)" xlink:href="#bu"/><use transform="matrix(0.05,0,0,0.05,80.9,0)" xlink:href="#bm"/></g><g id="bk"><use transform="matrix(0.05,0,0,0.05,0,0)" xlink:href="#bz"/><use transform="matrix(0.05,0,0,0.05,10,0)" xlink:href="#bA"/><use transform="matrix(0.05,0,0,0.05,20,0)" xlink:href="#bx"/><use transform="matrix(0.05,0,0,0.05,29,0)" xlink:href="#bB"/><use transform="matrix(0.05,0,0,0.05,38,0)" xlink:href="#bp"/><use transform="matrix(0.05,0,0,0.05,48,0)" xlink:href="#bm"/></g></defs></g></svg>